HIERARCHY
ROOT ui
{
	 OFFSET 0 0 0
	 CHANNELS 3 XPosition YPosition Z Position
	 EndSite
	 {
	 OFFSET 0 -1 0
	 }
}
ROOT li
{
	 OFFSET 0 0 0
	 CHANNELS 3 XPosition YPosition Z Position
	 EndSite
	 {
	 OFFSET 0 -1 0
	 }
}
ROOT ul
{
	 OFFSET 0 0 0
	 CHANNELS 3 XPosition YPosition Z Position
	 EndSite
	 {
	 OFFSET 0 -1 0
	 }
}
ROOT ll
{
	 OFFSET 0 0 0
	 CHANNELS 3 XPosition YPosition Z Position
	 EndSite
	 {
	 OFFSET 0 -1 0
	 }
}
ROOT tt
{
	 OFFSET 0 0 0
	 CHANNELS 3 XPosition YPosition Z Position
	 EndSite
	 {
	 OFFSET 0 -1 0
	 }
}
ROOT tb
{
	 OFFSET 0 0 0
	 CHANNELS 3 XPosition YPosition Z Position
	 EndSite
	 {
	 OFFSET 0 -1 0
	 }
}
ROOT td
{
	 OFFSET 0 0 0
	 CHANNELS 3 XPosition YPosition Z Position
	 EndSite
	 {
	 OFFSET 0 -1 0
	 }
}
ROOT v
{
	 OFFSET 0 0 0
	 CHANNELS 3 XPosition YPosition Z Position
	 EndSite
	 {
	 OFFSET 0 -1 0
	 }
}
ROOT bn
{
	 OFFSET 0 0 0
	 CHANNELS 3 XPosition YPosition Z Position
	 EndSite
	 {
	 OFFSET 0 -1 0
	 }
}
MOTION
Frames: 21
Frame Time: 0.002
-0.013717020988464355	3.5176301002502443E-4	0		0.5304230346679687	-2.6322158203125	0		-1.122560791015625	0.10537307739257812	0		-0.5027242126464844	-2.8091025390625	0		1.540483154296875	-0.9289533081054687	0		3.12238134765625	-0.3504796142578125	0		4.66285498046875	-0.063539794921875	0		5.81056201171875	0.4392447204589844	0		-0.38724090576171877	5.9221435546875	0		
-0.01815650749206543	0.0012575470209121704	0		0.5708778076171875	-2.635850341796875	0		-1.1220572509765625	0.10124381256103515	0		-0.479213134765625	-2.807515625	0		1.5389298095703126	-0.9361150512695312	0		3.123863525390625	-0.3557101135253906	0		4.66433154296875	-0.06980274200439453	0		5.81016455078125	0.4232188720703125	0		-0.39768438720703125	5.91212841796875	0		
-0.09381165313720703	5.3719999268651005E-6	0		0.5232664184570313	-2.62944384765625	0		-1.1227275390625	0.09812882232666016	0		-0.5078643798828125	-2.804313232421875	0		1.5412401123046875	-0.9393143310546875	0		3.117279541015625	-0.3508331909179688	0		4.65870556640625	-0.06896569061279297	0		5.81327587890625	0.42269677734375	0		-0.3932126770019531	5.91194091796875	0		
-0.009652284622192383	8.761640191078186E-4	0		0.5782682495117187	-2.638239990234375	0		-1.1185845947265625	0.09795938873291016	0		-0.4928625183105469	-2.812621337890625	0		1.5274150390625	-0.93531396484375	0		3.13235546875	-0.3561990661621094	0		4.67082177734375	-0.07132078552246093	0		5.8162294921875	0.42221368408203125	0		-0.37386093139648435	5.92158251953125	0		
-0.005757760047912597	6.985129714012145E-4	0		0.5072864685058593	-2.624541015625	0		-1.103713134765625	0.09566674041748047	0		-0.48597012329101563	-2.809828369140625	0		1.53434423828125	-0.9315476684570313	0		3.12530517578125	-0.35128890991210937	0		4.673869140625	-0.05854964828491211	0		5.81900732421875	0.4217724914550781	0		-0.3698878173828125	5.92140966796875	0		
0.0019189770221710205	0.004484325885772705	0		0.5887761840820313	-2.63463427734375	0		-1.1060228271484376	0.10058245849609375	0		-0.4912400207519531	-2.79888427734375	0		1.5379638671875	-0.9317308959960937	0		3.139871337890625	-0.35661886596679687	0		4.6834267578125	-0.06483714294433594	0		5.81741796875	0.44225680541992185	0		-0.38033514404296875	5.9094130859375	0		
-0.07576007080078125	0.0022878730297088623	0		0.538156005859375	-2.6301552734375	0		-1.1026712646484376	0.10043724822998047	0		-0.4800668640136719	-2.812128173828125	0		1.556211181640625	-0.940074951171875	0		3.15219482421875	-0.35890570068359373	0		4.67778955078125	-0.06392417907714844	0		5.820369140625	0.41074755859375	0		-0.34385479736328123	5.91587109375	0		
0.004285180091857911	2.359270006418228E-4	0		0.5921045532226562	-2.63890283203125	0		-1.1046434326171874	0.0973616714477539	0		-0.48791400146484376	-2.803137451171875	0		1.5362459716796875	-0.9419535522460938	0		3.1383154296875	-0.3538653564453125	0		4.68676806640625	-0.0711642074584961	0		5.82255322265625	0.4104423522949219	0		-0.3748136901855469	5.91113427734375	0		
-0.06992472076416016	0.0020184409618377685	0		0.54293017578125	-2.633418701171875	0		-1.1018701171875	0.09723725891113282	0		-0.47627078247070315	-2.813369873046875	0		1.5590020751953124	-0.9433246459960938	0		3.135063720703125	-0.3559347839355469	0		4.687529296875	-0.07228697204589844	0		5.8316630859375	0.40997662353515624	0		-0.35591290283203125	5.9198173828125	0		
0.014488951683044433	-0.005067523002624512	0		0.582306640625	-2.642972900390625	0		-1.0884039306640625	0.09499325561523438	0		-0.4687266540527344	-2.808544677734375	0		1.5624552001953125	-0.946455078125	0		3.1635634765625	-0.3553642883300781	0		4.6840908203125	-0.06634090423583984	0		5.83286962890625	0.43918594360351565	0		-0.3865040283203125	5.91209326171875	0		
0.01581701946258545	0.0038401401042938233	0		0.5547433471679688	-2.62472265625	0		-1.082135498046875	0.09884205627441406	0		-0.4403885498046875	-2.79895654296875	0		1.5846634521484375	-0.9477952270507812	0		3.13977490234375	-0.3561599426269531	0		4.6973232421875	-0.06557456970214844	0		5.8350244140625	0.4095787048339844	0		-0.3322508544921875	5.9143740234375	0		
0.013737701416015624	-2.0346599817276E-4	0		0.6015469360351563	-2.639344482421875	0		-1.0951905517578124	0.09692653656005859	0		-0.46453237915039064	-2.808740234375	0		1.5456949462890626	-0.9423988037109375	0		3.138684326171875	-0.36120977783203123	0		4.68623291015625	-0.07050330352783203	0		5.82860791015625	0.4148536071777344	0		-0.3302936096191406	5.9142822265625	0		
-0.06151702499389648	0.0016283049583435058	0		0.551346435546875	-2.633806884765625	0		-1.0934627685546876	0.09684376525878906	0		-0.441749267578125	-2.805069580078125	0		1.567412841796875	-0.94370947265625	0		3.143472412109375	-0.35631451416015625	0		4.68796142578125	-0.0705671157836914	0		5.82272509765625	0.4184141845703125	0		-0.32957302856445314	5.91521337890625	0		
0.01393400478363037	-0.003314363956451416	0		0.5528614501953125	-2.6338720703125	0		-1.0860191650390625	0.09170086669921874	0		-0.4962532653808594	-2.8064765625	0		1.560767333984375	-0.9566746215820312	0		3.151000732421875	-0.3544394226074219	0		4.68353662109375	-0.06454365539550781	0		5.830912109375	0.414677001953125	0		-0.3942444458007813	5.90292578125	0		
-0.05871465682983398	0.0015039269924163818	0		0.5630662841796875	-2.64303125	0		-1.085626220703125	0.09965046691894532	0		-0.4579430847167969	-2.806972900390625	0		1.565117919921875	-0.9527589721679688	0		3.160265380859375	-0.35757449340820313	0		4.6948349609375	-0.06469501495361328	0		5.8247236328125	0.41829385375976563	0		-0.3599061279296875	5.90847705078125	0		
0.023434865951538087	0.0035008530616760253	0		0.5563419799804687	-2.630980224609375	0		-1.0845069580078126	0.09959944915771485	0		-0.4547854309082031	-2.80504443359375	0		1.56927783203125	-0.94983203125	0		3.14739990234375	-0.3564383239746094	0		4.68595556640625	-0.06459814453125	0		5.82552294921875	0.41826715087890626	0		-0.3588167724609375	5.90843017578125	0		
0.020357837677001955	-4.866169989109039E-4	0		0.608227294921875	-2.6396142578125	0		-1.0885726318359374	0.09661807250976563	0		-0.45582464599609374	-2.80705810546875	0		1.56417041015625	-0.9567877807617188	0		3.16235888671875	-0.35762265014648437	0		4.69200830078125	-0.057668888092041015	0		5.82901708984375	0.40779690551757813	0		-0.33793743896484374	5.9031572265625	0		
0.021207006454467773	-5.121819972991943E-4	0		0.5551285400390625	-2.63599951171875	0		-1.087723876953125	0.09658709716796875	0		-0.46787823486328123	-2.799932861328125	0		1.550143310546875	-0.94662939453125	0		3.12811767578125	-0.3652191162109375	0		4.687775390625	-0.06461213684082032	0		5.822490234375	0.40800604248046873	0		-0.358032958984375	5.91037744140625	0		
0.01892510414123535	-0.0034936680793762206	0		0.61772412109375	-2.6507451171875	0		-1.0869710693359376	0.09656501770019531	0		-0.4541958923339844	-2.807105224609375	0		1.56578173828125	-0.9568159790039062	0		3.14285986328125	-0.36638742065429686	0		4.68852880859375	-0.0646082992553711	0		5.8343466796875	0.38866619873046876	0		-0.3742814025878906	5.91255908203125	0		
0.026684297561645507	0.0034138150215148925	0		0.569533203125	-2.640174560546875	0		-1.071271728515625	0.09837403869628907	0		-0.4504606018066406	-2.803152099609375	0		1.573379638671875	-0.9639013061523437	0		3.167701904296875	-0.3526684875488281	0		4.69634765625	-0.05268249130249023	0		5.83064306640625	0.40784133911132814	0		-0.3385714111328125	5.917134765625	0		
0.03223989868164062	-0.0016471710205078125	0		0.6241065063476563	-2.644811767578125	0		-1.0066498413085938	0.0986128921508789	0		-0.44781231689453127	-2.801179931640625	0		1.5731632080078124	-0.9498873901367187	0		3.153236572265625	-0.35948236083984375	0		4.69982080078125	-0.06470291137695312	0		5.82746484375	0.3975954895019531	0		-0.35508233642578124	5.90833203125	0		
